<svg xmlns="http://www.w3.org/2000/svg" width="41" height="27" viewBox="0 0 41 27">
    <g fill="none" fill-rule="evenodd" transform="translate(2)">
        <path fill="#5A5B6B" fill-rule="nonzero" stroke="#FFF" stroke-width="2" d="M7 15.75c2.708 0 4.993-.568 6.442-1.542L15 13.161v3.589c0 2.44-3.638 4-8 4s-8-1.56-8-4v-3.589l1.558 1.047C2.007 15.182 4.292 15.75 7 15.75z"/>
        <path fill="#5A5B6B" fill-rule="nonzero" d="M10 0h26.6a2 2 0 0 1 2 2v11.3a2 2 0 0 1-2 2H10a2 2 0 0 1-2-2V2a2 2 0 0 1 2-2zm9.535 13.387c-1.315-1.514-1.973-3.426-1.973-5.737 0-2.31.658-4.223 1.973-5.738h-5.797c0 1.036-.379 1.933-1.136 2.69-.757.757-1.654 1.135-2.69 1.135v4.782c.797 0 1.475.279 2.033.836.557.558.836 1.236.836 2.032h6.754zm17.152-2.868V5.737c-1.035 0-1.932-.378-2.689-1.135-.757-.757-1.136-1.654-1.136-2.69h-5.797c1.315 1.515 1.973 3.427 1.973 5.738 0 2.31-.658 4.223-1.973 5.737h6.754c0-.796.279-1.474.836-2.032a2.767 2.767 0 0 1 2.032-.836zm-22.95-.957c-1.275 0-1.912-.637-1.912-1.912s.637-1.913 1.913-1.913c1.275 0 1.912.638 1.912 1.913s-.637 1.912-1.912 1.912zm19.125 0c-1.275 0-1.912-.637-1.912-1.912s.637-1.913 1.912-1.913c1.276 0 1.913.638 1.913 1.913s-.637 1.912-1.913 1.912zM8 18.17c0-.528.428-.957.956-.957h28.688a.956.956 0 1 1 0 1.913H8.956A.956.956 0 0 1 8 18.169z"/>
        <path fill="#FFF" d="M23.413 9.563c-1.276 0-1.913-.638-1.913-1.913s.637-1.913 1.913-1.913c1.275 0 1.912.638 1.912 1.913s-.637 1.912-1.912 1.912z"/>
        <path fill="#5A5B6B" fill-rule="nonzero" stroke="#FFF" stroke-width="2" d="M7 20.75c2.708 0 4.993-.568 6.442-1.542L15 18.161v3.589c0 2.44-3.638 4-8 4s-8-1.56-8-4v-3.589l1.558 1.047C2.007 20.182 4.292 20.75 7 20.75z"/>
        <ellipse cx="7" cy="11.75" fill="#5A5B6B" fill-rule="nonzero" stroke="#FFF" stroke-width="2" rx="8" ry="4"/>
    </g>
</svg>
