<svg xmlns="http://www.w3.org/2000/svg" width="34" height="26" viewBox="0 0 34 26">
    <g fill="none" fill-rule="evenodd">
        <path fill="#5A5B6B" fill-rule="nonzero" d="M2 0h26.6a2 2 0 0 1 2 2v11.3a2 2 0 0 1-2 2H2a2 2 0 0 1-2-2V2a2 2 0 0 1 2-2zm9.535 13.387C10.22 11.873 9.562 9.961 9.562 7.65c0-2.31.658-4.223 1.973-5.738H5.737c0 1.036-.378 1.933-1.135 2.69-.757.757-1.654 1.135-2.69 1.135v4.782c.797 0 1.475.279 2.033.836.557.558.836 1.236.836 2.032h6.754zm17.152-2.868V5.737c-1.035 0-1.932-.378-2.689-1.135-.757-.757-1.136-1.654-1.136-2.69h-5.797c1.315 1.515 1.973 3.427 1.973 5.738 0 2.31-.658 4.223-1.973 5.737h6.754c0-.796.279-1.474.836-2.032a2.767 2.767 0 0 1 2.032-.836zm-22.95-.957c-1.275 0-1.912-.637-1.912-1.912s.637-1.913 1.912-1.913c1.276 0 1.913.638 1.913 1.913s-.637 1.912-1.913 1.912zm19.126 0c-1.276 0-1.913-.637-1.913-1.912s.637-1.913 1.913-1.913c1.275 0 1.912.638 1.912 1.913s-.637 1.912-1.912 1.912zM0 18.17c0-.528.428-.957.956-.957h21.45l-1.784 1.913H.956A.956.956 0 0 1 0 18.169z"/>
        <path fill="#FFF" d="M15.412 9.563c-1.275 0-1.912-.638-1.912-1.913s.637-1.913 1.912-1.913c1.276 0 1.913.638 1.913 1.913s-.637 1.912-1.912 1.912z"/>
        <g transform="translate(16 8)">
            <rect width="21" height="4" x="-2" y="7" fill="#5A5B6B" stroke="#FFF" stroke-width="2" rx="1" transform="rotate(-45 8.5 9)"/>
            <circle cx="4.5" cy="4.5" r="4" fill="#5A5B6B" stroke="#FFF"/>
            <circle cx="4.5" cy="4.5" r="1.5" fill="#FFF" transform="matrix(-1 0 0 1 9 0)"/>
            <g transform="translate(9 8)">
                <circle cx="4.5" cy="4.5" r="4" fill="#5A5B6B" stroke="#FFF"/>
                <circle cx="4.5" cy="4.5" r="1.5" fill="#FFF" transform="matrix(-1 0 0 1 9 0)"/>
            </g>
        </g>
    </g>
</svg>
