<svg xmlns="http://www.w3.org/2000/svg" width="32" height="30" viewBox="0 0 32 30">
    <g fill="#5A5B6B" fill-rule="nonzero" transform="translate(2 .994)">
        <path stroke="#5A5B6B" d="M16.625 2.248c-1.404 0-2.693.247-3.867.741a9.152 9.152 0 0 0-3.04 2.052A9.408 9.408 0 0 0 7.72 8.146C7.24 9.34 7 10.64 7 12.045s.269 2.725.806 3.964a10.375 10.375 0 0 0 2.191 3.244 10.375 10.375 0 0 0 3.244 2.191 9.857 9.857 0 0 0 3.964.806c1.404 0 2.704-.243 3.9-.73a9.375 9.375 0 0 0 3.104-2.03 9.309 9.309 0 0 0 2.052-3.094c.494-1.196.741-2.496.741-3.9a.66.66 0 0 0-.204-.483.66.66 0 0 0-.484-.204.68.68 0 0 0-.688.688c.001 1.217-.21 2.337-.633 3.361a7.962 7.962 0 0 1-1.762 2.654 8.027 8.027 0 0 1-2.664 1.74c-1.024.415-2.144.623-3.362.623a8.552 8.552 0 0 1-3.437-.698 8.959 8.959 0 0 1-2.804-1.89 8.959 8.959 0 0 1-1.89-2.805 8.552 8.552 0 0 1-.699-3.437c0-1.218.2-2.338.602-3.362a7.922 7.922 0 0 1 1.697-2.664 7.78 7.78 0 0 1 2.61-1.762c1.01-.423 2.124-.634 3.341-.634a.67.67 0 0 0 .494-.193.67.67 0 0 0 .193-.494.68.68 0 0 0-.687-.688zm2.063 7.627c0 .2.064.365.193.494a.67.67 0 0 0 .494.194h8.938A.68.68 0 0 0 29 9.874c0-1.332-.25-2.585-.752-3.76a9.623 9.623 0 0 0-2.052-3.061 9.623 9.623 0 0 0-3.061-2.052 9.476 9.476 0 0 0-3.76-.752.68.68 0 0 0-.688.688v8.937zm1.375-.688v-7.54a8.213 8.213 0 0 1 2.825.751c.88.416 1.658.96 2.33 1.633a8.236 8.236 0 0 1 1.634 2.331c.415.881.666 1.823.752 2.825h-7.541z"/>
        <path stroke="#FFF" stroke-width="2" d="M7 18.002c2.708 0 4.993-.568 6.442-1.542L15 15.413v3.589c0 2.44-3.638 4-8 4s-8-1.56-8-4v-3.589L.558 16.46c1.449.974 3.734 1.542 6.442 1.542z"/>
        <path stroke="#FFF" stroke-width="2" d="M7 23.004c2.708 0 4.993-.568 6.442-1.542L15 20.415v3.589c0 2.44-3.638 4-8 4s-8-1.56-8-4v-3.589l1.558 1.047c1.449.974 3.734 1.542 6.442 1.542z"/>
        <ellipse cx="7" cy="14" stroke="#FFF" stroke-width="2" rx="8" ry="4"/>
    </g>
</svg>
