<svg xmlns="http://www.w3.org/2000/svg" width="151" height="28" viewBox="0 0 151 28">
    <g fill="none" fill-rule="nonzero">
        <path fill="#FFF" d="M24.204 23.135c-.403.162-.777.394-1.174.639-.442.272-.898.554-1.406.742-2.229.879-4.342 1.129-6.176.724-2.393-.292-4.745-1.704-6.454-3.874-1.254-1.711-1.734-3.886-1.291-5.828.595-3.08 2.605-5.556 4.288-7.368.765-.85.639-1.24.475-1.457-.78-1.192-2.512-1.433-3.477-1.471-2.1 0-3.45.163-4.947 1.057-1.433 1.005-2.526 2.3-3.16 3.748-1.44 3.785-1.103 7.959.906 11.15 1.92 3.286 5.397 5.69 9.303 6.441.96.187 1.948.282 2.942.282 4.188 0 8.005-1.61 10.473-4.418a.273.273 0 0 0 .048-.066.188.188 0 0 0-.01-.194.285.285 0 0 0-.34-.107z"/>
        <path fill="#FFC003" d="M26.521 6.724c-1.92-3.287-5.397-5.69-9.303-6.442A15.353 15.353 0 0 0 14.276 0C10.088 0 6.271 1.61 3.803 4.418a.286.286 0 0 0-.048.067.187.187 0 0 0 .01.193c.068.107.215.159.34.108.402-.163.777-.394 1.174-.64.442-.272.898-.554 1.407-.741C8.22 2.8 9.698 2.49 11.069 2.49c.62 0 1.222.064 1.793.19 2.39.292 4.744 1.703 6.453 3.873 1.254 1.71 1.735 3.886 1.29 5.829-.594 3.079-2.603 5.556-4.287 7.368-.766.85-.639 1.24-.476 1.457.778 1.19 2.505 1.432 3.47 1.47 2.111 0 3.459-.164 4.955-1.057 1.433-1.004 2.526-2.3 3.16-3.748 1.44-3.785 1.103-7.959-.906-11.15z"/>
        <path fill="#FFF" d="M50.89 9.06a6.054 6.054 0 0 1 2.34 2.215c.568.938.852 1.98.852 3.124a5.958 5.958 0 0 1-.852 3.132 6.16 6.16 0 0 1-2.34 2.24c-.992.55-2.091.824-3.298.824-1.206 0-2.305-.274-3.297-.824a6.16 6.16 0 0 1-2.34-2.24 5.958 5.958 0 0 1-.853-3.132c0-1.145.285-2.186.853-3.124a6.055 6.055 0 0 1 2.34-2.215c.992-.538 2.091-.807 3.297-.807 1.207 0 2.306.27 3.298.807zm-5.333 1.794a4.047 4.047 0 0 0-1.514 1.476 3.969 3.969 0 0 0-.557 2.069c0 .755.189 1.448.566 2.077a4.18 4.18 0 0 0 1.513 1.493c.632.367 1.32.55 2.062.55.73 0 1.41-.183 2.036-.55a4.065 4.065 0 0 0 1.488-1.493c.365-.63.548-1.322.548-2.077 0-.755-.183-1.445-.548-2.069a4.02 4.02 0 0 0-1.488-1.476 4.012 4.012 0 0 0-2.036-.54 4.14 4.14 0 0 0-2.07.54zm15.057 2.275c-.754 0-1.366.251-1.836.755-.47.503-.704 1.156-.704 1.957 0 .824.234 1.487.704 1.99.47.504 1.082.756 1.836.756 1.113 0 1.949-.36 2.505-1.081l1.41 1.15a4.104 4.104 0 0 1-1.653 1.373c-.685.32-1.48.48-2.384.48-.916 0-1.731-.194-2.445-.583a4.137 4.137 0 0 1-1.661-1.64c-.395-.703-.592-1.513-.592-2.428 0-.927.2-1.745.6-2.455a4.18 4.18 0 0 1 1.67-1.648c.714-.389 1.535-.583 2.463-.583.847 0 1.603.146 2.27.437.668.292 1.21.707 1.627 1.245L63.05 14.14c-.627-.675-1.439-1.012-2.436-1.012zm13.343-.704c.748.835 1.123 2.008 1.123 3.519 0 .297-.006.52-.018.67H68.19c.151.651.461 1.164.931 1.535.47.372 1.047.558 1.732.558.475 0 .93-.088 1.365-.266a3.342 3.342 0 0 0 1.14-.764l1.218 1.254a4.71 4.71 0 0 1-1.696 1.167c-.667.274-1.407.412-2.219.412-.951 0-1.79-.195-2.514-.584a4.11 4.11 0 0 1-1.68-1.64c-.394-.703-.59-1.513-.59-2.428 0-.916.2-1.728.6-2.438.4-.71.96-1.261 1.679-1.656.719-.395 1.536-.592 2.453-.592 1.485 0 2.601.417 3.35 1.253zm-.948 2.695c-.023-.676-.25-1.213-.679-1.614-.429-.4-.997-.6-1.705-.6-.661 0-1.215.197-1.662.592-.446.394-.722.935-.826 1.622h4.872zm10.116 5.304v-1.116c-.325.4-.743.704-1.253.91-.51.206-1.096.309-1.757.309-.65 0-1.221-.123-1.714-.37a2.73 2.73 0 0 1-1.14-1.02 2.734 2.734 0 0 1-.4-1.46c0-.858.307-1.53.922-2.016.615-.487 1.485-.736 2.61-.747h2.714v-.24c0-.538-.18-.956-.54-1.254-.359-.297-.88-.446-1.565-.446-.882 0-1.804.286-2.767.858l-.817-1.544c.73-.401 1.395-.69 1.992-.867.597-.178 1.296-.266 2.097-.266 1.206 0 2.143.286 2.81.858.667.572 1.006 1.373 1.018 2.403l.017 6.008h-2.227zm-.8-2.069c.463-.303.724-.678.782-1.124v-.824h-2.349c-.603 0-1.047.089-1.33.266-.285.178-.427.467-.427.867 0 .39.148.698.444.927.295.229.698.343 1.209.343.65 0 1.206-.151 1.67-.455zm14.291-6.248c.615.635.922 1.497.922 2.584v5.733h-2.28v-5.081c0-.64-.185-1.147-.556-1.52-.371-.371-.876-.557-1.514-.557-.754.011-1.348.263-1.783.755-.435.492-.653 1.122-.653 1.888v4.515H88.49V11.24h2.262v1.717c.638-1.179 1.752-1.78 3.341-1.802 1.067 0 1.908.317 2.523.952zm11.118-2.343a5.152 5.152 0 0 0-1.983-.395c-.94 0-1.801.224-2.584.67a5.016 5.016 0 0 0-1.862 1.828 4.873 4.873 0 0 0-.687 2.532c0 .915.229 1.756.687 2.523a5.104 5.104 0 0 0 1.862 1.828 5.076 5.076 0 0 0 2.584.678c.673 0 1.328-.128 1.966-.386a5.598 5.598 0 0 0 1.705-1.073l.73.773a7.021 7.021 0 0 1-2.07 1.304 6.2 6.2 0 0 1-2.383.481 6.28 6.28 0 0 1-3.167-.824 6.208 6.208 0 0 1-2.288-2.231 5.866 5.866 0 0 1-.844-3.073c0-1.11.284-2.129.852-3.056a6.234 6.234 0 0 1 2.306-2.205 6.38 6.38 0 0 1 3.175-.816c.824 0 1.619.152 2.384.455a6.409 6.409 0 0 1 2.019 1.262l-.714.824a5.35 5.35 0 0 0-1.688-1.099zm7.3 2.189c.562-.36 1.238-.547 2.026-.558v1.081c-.962-.011-1.737.266-2.322.833-.586.566-.92 1.336-1 2.308v4.807h-1.167v-8.995h1.166v2.094c.302-.686.734-1.21 1.296-1.57zm10.691.772c.743.887 1.085 2.08 1.027 3.579h-7.604c.082.961.441 1.737 1.08 2.326.637.59 1.426.884 2.366.884.58 0 1.119-.103 1.618-.309a3.71 3.71 0 0 0 1.287-.875l.662.652c-.441.469-.972.832-1.593 1.09a5.283 5.283 0 0 1-2.044.386c-.882 0-1.665-.192-2.349-.575a4.144 4.144 0 0 1-1.61-1.605c-.388-.687-.582-1.47-.582-2.352 0-.87.194-1.65.583-2.343a4.128 4.128 0 0 1 1.61-1.613c.683-.384 1.455-.575 2.313-.575 1.415 0 2.494.443 3.236 1.33zm-.017 2.687c-.058-.939-.374-1.685-.948-2.24-.574-.555-1.325-.833-2.253-.833-.917 0-1.682.28-2.297.841-.615.56-.969 1.305-1.062 2.232h6.56zm11.78-7.725v12.737h-1.166v-2.06a3.815 3.815 0 0 1-1.462 1.57c-.626.373-1.357.558-2.192.558-.858 0-1.624-.194-2.297-.583a4.029 4.029 0 0 1-1.566-1.63c-.37-.699-.556-1.489-.556-2.37 0-.88.188-1.665.565-2.351a4.136 4.136 0 0 1 1.566-1.614c.667-.389 1.424-.584 2.27-.584.836 0 1.57.19 2.202.567a3.854 3.854 0 0 1 1.47 1.58v-5.82h1.166zm-2.836 11.355c.522-.303.93-.724 1.226-1.262.296-.537.444-1.15.444-1.836 0-.687-.148-1.302-.444-1.846a3.277 3.277 0 0 0-1.226-1.278c-.522-.31-1.114-.464-1.775-.464-.661 0-1.253.155-1.775.464a3.339 3.339 0 0 0-1.235 1.278c-.302.544-.453 1.16-.453 1.846 0 .686.148 1.299.444 1.836.296.538.708.959 1.235 1.262a3.515 3.515 0 0 0 1.784.455c.661 0 1.253-.152 1.775-.455zm6.333-7.613h1.166v8.995h-1.166v-8.995zm1.166-3.167a.79.79 0 0 1 .226.575.804.804 0 0 1-.235.584.762.762 0 0 1-.565.24.782.782 0 0 1-.583-.24.804.804 0 0 1-.235-.584.797.797 0 0 1 .818-.807c.232 0 .423.078.574.232zm7.986 11.544c-.626.423-1.299.646-2.018.67-.696 0-1.247-.212-1.653-.636-.406-.423-.609-1.058-.609-1.905v-5.356h-1.305l-.017-.892h1.322V9.369h1.166v2.318l2.958-.018v.91h-2.958v5.167c0 1.11.417 1.665 1.253 1.665.464 0 .968-.16 1.513-.48l.348.875z"/>
    </g>
</svg>
