<svg xmlns="http://www.w3.org/2000/svg" width="124" height="124" viewBox="0 0 124 124">
    <g fill="none" fill-rule="evenodd">
        <path d="M0 0H123.58V123.281H0z"/>
        <g transform="translate(48 5.954)">
            <g transform="translate(.23 .039)">
                <path fill="#0E8BE0" fill-rule="nonzero" d="M30.431 39.962l-5.736 2.454-.354 8.534.635 6.522 4.671 6.47-8.316 21.48 3.718 1.841 12.885-21.961c.814-1.387.956-3.037.39-4.529l-7.893-20.811z"/>
                <path fill="#099AF5" fill-rule="nonzero" d="M13.716 47.437l3.01 17.235L1.853 96.868l3.449 2.008 18.931-29.08c1.105-1.696 1.597-3.686 1.402-5.67L24.34 50.95c1.107-.757 1.652-2.05 1.398-3.32l-1.044-5.214-10.979 5.02z"/>
                <path fill="#0E8BE0" fill-rule="nonzero" d="M1.854 96.868L3.232 93.883 7.168 96.008 5.302 98.874z"/>
                <path fill="#A9DCFE" fill-rule="nonzero" d="M49.312 21.269l3.17-9.72c.086-.239.648-.223.883-.112l2.453 1.228c.267.133.393.43.296.7l-3.374 9.503s-2.397-.326-3.428-1.6z"/>
                <path fill="#1276C9" fill-rule="nonzero" d="M21.331 85.423L22.486 82.439 26.84 84.211 25.049 87.263z" opacity=".5"/>
                <path fill="#E4F3FA" fill-rule="nonzero" d="M48.84 21.305l3.438-9.594c.04-.114.13-.205.248-.25.118-.044.25-.037.362.019l2.453 1.227c.268.133.393.43.296.7l-3.374 9.504s-2.392-.333-3.423-1.606z"/>
                <path fill="#0E8BE0" fill-rule="nonzero" d="M2.149 97.036l-1.137 2.273s-2.032 11.269 1.14 11.38c3.17.112 2.047-10.71 2.047-10.71l.89-1.234-2.94-1.71zM21.743 85.627l-1.078 2.09s-2.032 11.269 1.14 11.38c3.17.112 2.047-10.71 2.047-10.71l.888-1.238-2.997-1.522z"/>
                <path fill="#A9DCFE" fill-rule="nonzero" d="M13.716 47.437L12.047 31.7l-1.889 1.785L4.61 29.47s4.486-6.917 12.513-10.264l4.208 2.789 1.459-3.682s5.548.558 10.506 5.132L30.272 28.8l-2.642-1.115 2.801 12.272-16.715 7.48z"/>
                <path fill="#F3BF17" fill-rule="nonzero" d="M33.296 23.444l5.588 4.276 8.106-4.797 1.496-3.942h2.36c0 .506-.383.94-.91 1.028l-.524.088-.334 1.32s1.83 1.283 3.66 1.488l1.78-4.909c.562.838.706 1.866.394 2.813l-.896 2.728c-.242.736-.975 1.229-1.79 1.205l-2.796-.07-9.235 6.792c-.76.558-1.781.68-2.664.318l-7.26-2.983 3.025-5.355z"/>
                <path fill="#DCF3FF" fill-rule="nonzero" d="M30.447 39.962L13.716 47.435 13.983 48.966 30.915 41.142z"/>
                <path fill="#F3BF17" fill-rule="nonzero" d="M4.61 29.469l-1.827 2.957c-.548.887-.39 2.011.382 2.733l8.811 8.222-2.29.76v3.298l2.053.579c1.26.355 2.59-.314 2.98-1.5l.71-2.165c.322-.972.12-2.031-.541-2.835l-6.108-6.47 1.378-1.563L4.61 29.47z"/>
                <path fill="#A9DCFE" fill-rule="nonzero" d="M4.2 99.979s-.06-.981-1.24-1.105-1.417-.626-1.417-.626l.608-1.212 2.938 1.709-.89 1.234zM23.852 88.387s-.15-.798-1.33-.922c-1.18-.123-1.417-.625-1.417-.625l.608-1.213 3.027 1.522-.888 1.238z"/>
                <path fill="#DCF3FF" fill-rule="nonzero" d="M21.331 21.994L19.682 23.63 15.838 19.785 16.454 18.535zM23.262 23.184L21.331 21.994 23.026 17.531 24.032 18.535z"/>
                <path fill="#F3BF17" fill-rule="nonzero" d="M16.454 18.535L13.576 7.143l9.765-6.012.765 3.142c.328 1.348.797 2.662 1.399 3.923l-.865.335.624 2.814c.273 1.216-.483 2.427-1.741 2.789l-1.087.313.59 3.087-1.695 4.463-4.877-3.462z"/>
                <path fill="#099AF5" fill-rule="nonzero" d="M14.865 12.244s1.471-.143 1.039-1.742c-.432-1.598-.571-2.881.216-2.937.787-.056 1.16 1.04 1.16 1.04l1.516-.482s-1.73-3.645 1.122-3.738c2.85-.092 6.847-.26 5.705-2.827-1.142-2.566-6.1-1.19-6.1-1.19s-5.811 1.417-6.487 3.552c-.675 2.135 1.83 8.324 1.83 8.324z"/>
                <path fill="#DD9D0E" fill-rule="nonzero" d="M22.436 14.444L20.547 14.854 23.026 17.531z"/>
                <path fill="#DCF3FF" fill-rule="nonzero" d="M10.805 32.874L5.295 28.519 4.61 29.469 10.158 33.485zM32.537 22.766L29.279 28.318 30.272 28.799 33.296 23.444z"/>
                <circle cx="21.853" cy="24.584" r="1" stroke="#FFF" stroke-width=".527" transform="rotate(-15.59 21.853 24.584)"/>
                <path stroke="#A9DCFE" stroke-width=".527" d="M18.953 49.396L18.998 49.727"/>
                <path stroke="#A9DCFE" stroke-dasharray="1.723" stroke-width=".527" d="M19.087 50.387l2.018 15.006L5.612 94.4"/>
                <path stroke="#A9DCFE" stroke-width=".527" d="M5.454 94.698L5.295 94.996"/>
                <path stroke="#FFF" stroke-width=".527" d="M14.366 30.115L18.48 29.3"/>
                <path fill="#DCF3FF" fill-rule="nonzero" d="M14.536 30.879L18.65 30.066 19.049 31.87 17.179 33.379 14.935 32.683z"/>
                <path stroke="#DD9D0E" stroke-width=".527" d="M38.884 27.72L38.057 28.167M8.78 35.047L8.05 34.749"/>
                <path stroke="#0E8BE0" stroke-width=".577" d="M29.652 63.939L31.612 63.613M16.727 64.672L18.473 65.17"/>
                <path fill="#0E8BE0" fill-rule="nonzero" d="M13.983 48.966L25.505 45.538 26.84 43.025z"/>
                <path fill="#DD9D0E" fill-rule="nonzero" d="M4.61 29.469L9.43 34.311 10.158 33.485z"/>
                <path stroke="#FFF" stroke-width=".577" d="M22.98 43.191L23.431 44.6 25.8 43.506 25.341 42.187z"/>
                <path stroke="#FFF" stroke-width=".527" d="M53.378 15.225L51.274 16.769M54.362 15.225L50.415 18.201"/>
                <path fill="#A9DCFE" fill-rule="nonzero" d="M53.249 11.657L53.249 12.251 54.48 12.901 55.125 12.593z"/>
                <circle cx="50.108" cy="11.646" r="1" fill="#E4F3FA" fill-rule="nonzero"/>
                <path fill="#099AF5" fill-rule="nonzero" d="M2.144 93.883s-2.49 4.016-2.007 6.096c0 0-.885-3.044 2.007-6.096z"/>
                <path fill="#F9F9F9" fill-rule="nonzero" d="M22.018 9.889l2.014.464c.126.027.23.112.276.226.048.113.032.242-.04.343-.284.381-.82.833-1.71.64-.944-.205-1.062-.892-1.023-1.345.009-.108.068-.207.16-.27.094-.063.212-.084.323-.058z"/>
                <path fill="#DD9D0E" fill-rule="nonzero" d="M24.15 4.451s-3.012.492-4.61.492c-1.599 0-1.255 1.32-1.255 1.32S17.13 4.38 19.918 4.38c2.787 0 4.114-.414 4.114-.414l.118.484z"/>
                <path stroke="#DD9D0E" stroke-linecap="round" stroke-width=".577" d="M21.33 6.598s.225-1.228 1.351-.335"/>
            </g>
            <path fill="#FFF" fill-rule="nonzero" d="M47.73 5.332s2.271-.081 3.33 1.673c0 0-.747-2.187-3.33-1.673z"/>
            <path stroke="#A9DCFE" stroke-width=".5" d="M54.02 12.901s.273.037.74.115M60.733 35.373l-.1.7"/>
            <circle cx="14.615" cy="10.857" r="1" fill="#F3BF17" fill-rule="nonzero"/>
            <path fill="#A9DCFE" fill-rule="nonzero" d="M64.75 27.668c1.136-.522 2.048-1.386 2.59-2.452 0 0-.42 1.766-2.59 2.452z"/>
        </g>
    </g>
</svg>
