<svg xmlns="http://www.w3.org/2000/svg" xmlns:xlink="http://www.w3.org/1999/xlink" width="240" height="232" viewBox="0 0 240 232">
    <defs>
        <path id="a" d="M191.347 4.938a117.757 117.757 0 0 1 0 118.693c-21.398 36.721-60.973 59.347-103.768 59.347-32.283 0-62.733-12.875-84.93-34.964-3.474-3.456-2.8-5.39-1.683-6.64 1.207-1.35 3.13-1.755 6.45 1.619 20.708 21.051 48.987 32.567 80.163 32.567 40.792 0 76.623-19.715 97.028-54.71a112.185 112.185 0 0 0 0-113.13l-.752-1.451a3.426 3.426 0 0 1 1.604-4.688 3.821 3.821 0 0 1 4.963 1.65l.925 1.707z"/>
        <filter id="b" width="123.2%" height="113.1%" x="-17.4%" y="-6.6%" filterUnits="objectBoundingBox">
            <feMorphology in="SourceAlpha" radius="12" result="shadowSpreadOuter1"/>
            <feOffset dy="24" in="shadowSpreadOuter1" result="shadowOffsetOuter1"/>
            <feGaussianBlur in="shadowOffsetOuter1" result="shadowBlurOuter1" stdDeviation="12"/>
            <feColorMatrix in="shadowBlurOuter1" values="0 0 0 0 0.811764706 0 0 0 0 0.329411765 0 0 0 0 0.8 0 0 0 0.250054633 0"/>
        </filter>
        <linearGradient id="c" x1="89.835%" x2="17.12%" y1="24.849%" y2="82.567%">
            <stop offset="0%" stop-color="#FE6260"/>
            <stop offset="13.107%" stop-color="#FF8831"/>
            <stop offset="44.851%" stop-color="#FFD600"/>
            <stop offset="100%" stop-color="#47D079"/>
        </linearGradient>
    </defs>
    <g fill="none" fill-rule="evenodd">
        <path fill="#47D079" fill-rule="nonzero" d="M103.305 181.974L89.975 207h-6.063L97.5 182.06H83.525v-5.16h19.78v5.074zm23.134-.688l-9.116 6.622.043.086c.287-.086.688-.129 1.204-.129 2.523 0 4.694.867 6.515 2.601 1.82 1.735 2.73 4.05 2.73 6.945 0 3.21-1.04 5.705-3.117 7.482-2.079 1.777-4.709 2.666-7.891 2.666-2.78 0-5.181-.702-7.203-2.107-2.02-1.405-3.432-2.967-4.235-4.687l3.139-3.956h.258a11.526 11.526 0 0 0 3.117 4.192c1.362 1.162 2.975 1.742 4.838 1.742 1.777 0 3.218-.509 4.322-1.526 1.103-1.018 1.655-2.344 1.655-3.978 0-1.806-.53-3.203-1.591-4.192-1.06-.99-2.566-1.484-4.515-1.484-1.548 0-2.867.287-3.956.86l-2.494-3.698 9.718-7.095h-11.825v-4.73h18.404v4.386zm24.51.344h-13.287v7.138l.043.043c1.691-1.06 3.655-1.591 5.891-1.591 3.039 0 5.554.867 7.547 2.601 1.992 1.735 2.988 4.15 2.988 7.246 0 3.21-1.06 5.755-3.182 7.632-2.121 1.878-4.888 2.817-8.299 2.817-2.723 0-5.11-.71-7.16-2.129s-3.39-2.93-4.02-4.536l2.967-4.042h.258a11.768 11.768 0 0 0 3.16 4.171c1.362 1.147 3.032 1.72 5.01 1.72 1.978 0 3.497-.545 4.558-1.634 1.06-1.09 1.591-2.48 1.591-4.171 0-1.634-.537-2.96-1.613-3.978-1.075-1.017-2.587-1.526-4.536-1.526-2.121 0-3.927.63-5.418 1.892l-4.644-1.978V176.9h18.146v4.73zM77.504 229h-1.792v-9.8h1.792v9.8zm10.346-8.008c.896 0 1.559.252 1.988.756.43.504.644 1.139.644 1.904V229h-1.68v-4.662c0-1.204-.434-1.806-1.302-1.806-.513 0-.924.21-1.232.63-.308.42-.462.98-.462 1.68V229h-1.68v-4.676c0-1.195-.425-1.792-1.274-1.792-.532 0-.95.208-1.253.623-.303.415-.455.978-.455 1.687V229h-1.68v-7.84h1.4l.112 1.036h.056c.504-.803 1.25-1.204 2.24-1.204 1.036 0 1.755.457 2.156 1.372h.042a2.37 2.37 0 0 1 .924-.987c.42-.257.905-.385 1.456-.385zm8.204 0c.97 0 1.771.392 2.401 1.176.63.784.945 1.764.945 2.94 0 1.195-.299 2.17-.896 2.926-.597.756-1.414 1.134-2.45 1.134-.467 0-.889-.098-1.267-.294a2.408 2.408 0 0 1-.889-.756h-.056v3.472h-1.68v-10.43h1.414l.126 1.036h.042c.196-.345.492-.632.889-.861.397-.229.87-.343 1.421-.343zm-.28 1.54c-.625 0-1.115.238-1.47.714s-.532 1.106-.532 1.89c0 .747.184 1.344.553 1.792.369.448.856.672 1.463.672.616 0 1.092-.229 1.428-.686.336-.457.504-1.06.504-1.806 0-.747-.17-1.363-.511-1.848-.34-.485-.819-.728-1.435-.728zm8.246-1.54c.579 0 1.017.182 1.316.546l-.294 1.68h-.084c-.29-.345-.667-.518-1.134-.518-.448 0-.784.184-1.008.553-.224.369-.336.884-.336 1.547v4.2h-1.68v-7.84h1.414l.126 1.036h.042c.15-.392.369-.69.658-.896.29-.205.616-.308.98-.308zm3.024 1.162c.7-.775 1.563-1.162 2.59-1.162s1.88.373 2.562 1.12c.681.747 1.022 1.713 1.022 2.898l-.014.574h-5.488c.019.579.215 1.06.588 1.442.373.383.859.574 1.456.574.476 0 .915-.133 1.316-.399s.71-.567.924-.903h.084l.756 1.498c-.243.345-.642.66-1.197.945-.555.285-1.183.427-1.883.427-1.157 0-2.074-.373-2.751-1.12-.677-.747-1.015-1.731-1.015-2.954 0-1.195.35-2.175 1.05-2.94zm3.864.882c-.327-.336-.751-.504-1.274-.504s-.947.173-1.274.518a2.244 2.244 0 0 0-.602 1.204h3.71a1.878 1.878 0 0 0-.56-1.218zm6.3-2.044c.719 0 1.353.154 1.904.462.55.308.961.64 1.232.994l-.742 1.4h-.084a3.618 3.618 0 0 0-1.05-.98 2.382 2.382 0 0 0-1.26-.378c-.364 0-.649.084-.854.252-.205.168-.308.364-.308.588a.7.7 0 0 0 .084.364c.056.093.22.2.49.322.232.104.563.215.994.333l.224.059c.98.243 1.685.541 2.114.896.43.355.644.877.644 1.568 0 .69-.278 1.246-.833 1.666-.555.42-1.262.63-2.121.63-.765 0-1.449-.147-2.051-.441-.602-.294-1.066-.646-1.393-1.057l.756-1.442h.084c.317.401.695.733 1.134.994.439.261.896.392 1.372.392.933 0 1.4-.266 1.4-.798 0-.243-.119-.436-.357-.581-.216-.132-.685-.296-1.407-.493l-.224-.06c-.877-.224-1.519-.52-1.925-.889-.406-.369-.609-.861-.609-1.477 0-.644.252-1.192.756-1.645.504-.453 1.18-.679 2.03-.679zm4.802-2.758c.205-.205.485-.308.84-.308s.63.1.826.301c.196.2.294.469.294.805 0 .336-.098.604-.294.805-.196.2-.471.301-.826.301s-.632-.1-.833-.301c-.2-.2-.301-.469-.301-.805 0-.336.098-.602.294-.798zM123.676 229h-1.68v-7.84h1.68V229zm2.492-6.818c.728-.793 1.624-1.19 2.688-1.19s1.96.397 2.688 1.19c.728.793 1.092 1.773 1.092 2.94 0 1.176-.338 2.144-1.015 2.905-.677.76-1.598 1.141-2.765 1.141s-2.088-.378-2.765-1.134c-.677-.756-1.015-1.727-1.015-2.912 0-1.167.364-2.147 1.092-2.94zm4.2 1.12c-.383-.513-.887-.77-1.512-.77s-1.132.257-1.519.77-.581 1.125-.581 1.834c0 .728.187 1.32.56 1.778.373.457.882.686 1.526.686.653 0 1.169-.231 1.547-.693.378-.462.567-1.062.567-1.799 0-.7-.196-1.302-.588-1.806zm7.602-2.31c.905 0 1.598.264 2.079.791.48.527.721 1.192.721 1.995V229h-1.68v-4.76c0-1.139-.485-1.708-1.456-1.708-.579 0-1.043.22-1.393.658-.35.439-.525 1.031-.525 1.778V229h-1.68v-7.84h1.4l.112 1.036h.042c.541-.803 1.335-1.204 2.38-1.204zm7.336 0c.905 0 1.631.245 2.177.735s.819 1.169.819 2.037V229h-1.33l-.182-1.036h-.042c-.485.803-1.255 1.204-2.31 1.204-.765 0-1.346-.194-1.743-.581-.397-.387-.595-.917-.595-1.589 0-.635.187-1.157.56-1.568.373-.41.994-.71 1.862-.896l.448-.096c.628-.141 1.053-.275 1.274-.401.27-.154.406-.362.406-.623a.793.793 0 0 0-.343-.672c-.229-.168-.567-.252-1.015-.252-.915 0-1.638.513-2.17 1.54h-.084l-.868-1.386a3.734 3.734 0 0 1 3.136-1.652zm1.344 4.13h-.028c-.075.14-.231.261-.469.364-.17.073-.413.151-.728.234l-.413.102c-.485.112-.821.252-1.008.42a.812.812 0 0 0-.28.63c0 .252.089.448.266.588.177.14.415.21.714.21.504 0 .954-.14 1.351-.42.397-.28.595-.62.595-1.022v-1.106zm7.266-4.13c.905 0 1.598.264 2.079.791.48.527.721 1.192.721 1.995V229h-1.68v-4.76c0-1.139-.485-1.708-1.456-1.708-.579 0-1.043.22-1.393.658-.35.439-.525 1.031-.525 1.778V229h-1.68v-7.84h1.4l.112 1.036h.042c.541-.803 1.335-1.204 2.38-1.204zm6.818.168h2.254v1.54h-2.24v4.102c0 .439.187.658.56.658.308 0 .635-.126.98-.378h.084l.406 1.61c-.476.317-1.06.476-1.75.476-.57 0-1.038-.161-1.407-.483-.369-.322-.553-.805-.553-1.449V222.7h-1.26v-.98c.933-.401 1.573-1.241 1.918-2.52h1.008v1.96z"/>
        <g transform="translate(-1)">
            <ellipse cx="121.163" cy="119.682" stroke="#F0F1F4" stroke-width="20.399" rx="29.964" ry="29.482"/>
            <path fill="#4A6DA3" fill-opacity=".1" fill-rule="nonzero" d="M17.3 178.065a117.757 117.757 0 0 1 0-118.693C38.696 22.65 78.271.025 121.066.025c42.796 0 82.37 22.626 103.768 59.347a117.757 117.757 0 0 1 0 118.693l-1.004 1.709a4.007 4.007 0 0 1-5.101 1.622 3.27 3.27 0 0 1-1.496-4.602l.862-1.511a112.185 112.185 0 0 0 0-113.13c-20.405-34.996-56.237-54.71-97.029-54.71-40.792 0-76.623 19.714-97.028 54.71a112.185 112.185 0 0 0 0 113.13l.753 1.451a3.426 3.426 0 0 1-1.605 4.688 3.821 3.821 0 0 1-4.963-1.65l-.925-1.707z"/>
            <g transform="rotate(-180 104.323 91.501)">
                <mask id="d" fill="#fff">
                    <use xlink:href="#a"/>
                </mask>
                <use fill="#000" filter="url(#b)" xlink:href="#a"/>
                <use fill="#22B4EF" xlink:href="#a"/>
                <ellipse cx="87.579" cy="65.585" fill="url(#c)" mask="url(#d)" rx="122.164" ry="120.699"/>
            </g>
            <path fill="#47D079" d="M179.954 59.943a2.508 2.508 0 0 1 3.428 3.62l-41.524 49.161a167.22 167.22 0 0 1-10.381 11.21l-2.062 2.03c-4.164 4.104-10.852 4.104-15.016 0l-.108-.108c-4.027-4.086-3.978-10.662.108-14.688 5-4.927 10.318-9.52 15.92-13.75zm-58.586 55.483c-2.068 0-3.744 1.661-3.744 3.71 0 2.048 1.676 3.709 3.744 3.709 2.068 0 3.744-1.66 3.744-3.71 0-2.048-1.676-3.709-3.744-3.709z"/>
            <g fill-rule="nonzero">
                <path fill="#47D079" d="M204 47a9 9 0 1 0 0-18 9 9 0 0 0 0 18z"/>
                <path fill="#F7F9F9" d="M204 44a6 6 0 1 1 0-12 6 6 0 0 1 0 12z"/>
            </g>
        </g>
    </g>
</svg>
