<svg xmlns="http://www.w3.org/2000/svg" width="78" height="12" viewBox="0 0 78 12">
    <g fill="#FFD769" fill-rule="nonzero">
        <path d="M77.926 4.083a.3.3 0 0 0-.276-.183h-3.66L72.273.223a.3.3 0 0 0-.544 0L70.01 3.9H66.35a.3.3 0 0 0-.216.508l2.71 2.81-1.09 4.36a.3.3 0 0 0 .44.333L72 9.735l3.806 2.175a.299.299 0 0 0 .33-.02.3.3 0 0 0 .11-.313l-1.09-4.359 2.71-2.81a.3.3 0 0 0 .06-.325zM61.426 4.083a.3.3 0 0 0-.276-.183h-3.66L55.773.223a.3.3 0 0 0-.544 0L53.51 3.9h-3.66a.3.3 0 0 0-.215.508l2.71 2.81-1.09 4.36a.3.3 0 0 0 .44.333L55.5 9.735l3.806 2.175a.299.299 0 0 0 .33-.02.3.3 0 0 0 .11-.313l-1.09-4.359 2.71-2.81a.3.3 0 0 0 .06-.325zM44.926 4.083a.3.3 0 0 0-.276-.183h-3.66L39.273.223a.3.3 0 0 0-.544 0L37.01 3.9h-3.66a.3.3 0 0 0-.215.508l2.71 2.81-1.09 4.36a.3.3 0 0 0 .44.333L39 9.735l3.806 2.175a.299.299 0 0 0 .33-.02.3.3 0 0 0 .11-.313l-1.09-4.359 2.71-2.81a.3.3 0 0 0 .06-.325zM28.426 4.083a.3.3 0 0 0-.276-.183h-3.66L22.773.223a.3.3 0 0 0-.544 0L20.51 3.9h-3.66a.3.3 0 0 0-.215.508l2.71 2.81-1.09 4.36a.3.3 0 0 0 .44.333L22.5 9.735l3.806 2.175a.299.299 0 0 0 .33-.02.3.3 0 0 0 .11-.313l-1.09-4.359 2.71-2.81a.3.3 0 0 0 .06-.325zM11.926 4.083a.3.3 0 0 0-.276-.183H7.99L6.273.223a.3.3 0 0 0-.544 0L4.01 3.9H.35a.3.3 0 0 0-.215.508l2.71 2.81-1.09 4.36a.3.3 0 0 0 .44.333L6 9.735l3.806 2.175a.299.299 0 0 0 .33-.02.3.3 0 0 0 .11-.313l-1.09-4.359 2.71-2.81a.3.3 0 0 0 .06-.325z"/>
    </g>
</svg>
