<svg xmlns="http://www.w3.org/2000/svg" width="1440" height="284" viewBox="0 0 1440 284">
    <defs>
        <linearGradient id="a" x1="50%" x2="50%" y1="100%" y2="0%">
            <stop offset="0%" stop-color="#FFF" stop-opacity="0"/>
            <stop offset="100%" stop-color="#FFFEFE"/>
        </linearGradient>
        <linearGradient id="b" x1="50%" x2="50%" y1="100%" y2="0%">
            <stop offset="0%" stop-color="#FFF" stop-opacity="0"/>
            <stop offset="100%" stop-color="#FFFEFE"/>
        </linearGradient>
        <linearGradient id="c" x1="50%" x2="50%" y1="100%" y2="0%">
            <stop offset="0%" stop-color="#FFF" stop-opacity="0"/>
            <stop offset="100%" stop-color="#FFFEFE"/>
        </linearGradient>
        <linearGradient id="d" x1="50%" x2="50%" y1="100%" y2="0%">
            <stop offset="0%" stop-color="#FFF" stop-opacity="0"/>
            <stop offset="100%" stop-color="#FFFEFE"/>
        </linearGradient>
    </defs>
    <g fill="none" fill-rule="evenodd">
        <path fill="url(#a)" fill-opacity=".05" d="M0 64.91C176.64 66.924 348.891 36 595.2 36c366.817 0 495.36 140.7 844.8 140.77V237H0V64.91z"/>
        <path fill="url(#b)" fill-opacity=".08" d="M0 13.484c176.64 2.017 348.891 85.717 595.2 85.717C962.017 99.2 1090.56-.068 1440 0v186H0V13.484z"/>
        <path fill="url(#c)" fill-opacity=".08" d="M0 229.5C410.88 234.138 571.622 129 817.92 129c241.92 0 456.96 64.938 622.08 64.938V284H0v-54.5z"/>
        <path fill="url(#d)" fill-opacity=".08" d="M0 98c410.88 4.647 702.182 79 948.48 79 188.16 0 326.4-57.314 491.52-57.314V256H0V98z"/>
    </g>
</svg>
